# xmcd
# 
# Track frame offsets:
#     150
#     17791
#     29048
#     45841
#     65075
# 
# Disc length: 1049
# 
# Revision: 0
# Processed by: cddbd v1.5.2PL0 Copyright (c) Steve Scherf et al.
# Submitted via: fre:ac v1.0.17
# 
DISCID=3d041705
DTITLE=Hacia Dónde - Duérmete Niño
DYEAR=2002
DGENRE=Pop
TTITLE0=Nada en qué preocuparse
TTITLE1=Juntas
TTITLE2=Duérmete niño
TTITLE3=Maltrato
TTITLE4=Mi amiga la soledad
EXTD=
EXTT0=
EXTT1=
EXTT2=
EXTT3=
EXTT4=
PLAYORDER=
